<svg xmlns="http://www.w3.org/2000/svg" width="32" height="32" viewbox="0 0 32 32"><path d="M16.064 2.688c4.352.128 8.256 1.408 11.296 4.8 3.328 3.68 3.552 8.64.416 12.512-3.104 3.904-7.2 6.656-11.552 9.024-.352.192-.8.448-1.184.192-.48-.32-.192-.864-.128-1.312.384-2.112.224-2.336-1.792-2.752-2.752-.576-5.28-1.568-7.424-3.424C.864 17.504.768 10.944 5.504 6.592c2.944-2.72 6.528-3.808 10.56-3.904zm2.528 11.68c-.064.064-.16.096-.224.128a120.1 120.1 0 0 1-2.432-3.2c-.256-.32-.544-.576-.96-.448-.448.128-.544.512-.544.896l-.032 4.96c.032.512.192.992.768.96.576 0 .736-.448.736-.992V14.08c1.056.992 1.856 2.048 2.656 3.104.256.32.512.608.96.48.448-.16.512-.512.512-.928v-4.96c0-.512-.128-.992-.736-.96-.64.032-.672.544-.704 1.024v2.528zm2.432-.192h0v2.528c0 .512.192.96.768.992a20.21 20.21 0 0 0 2.784 0c.416-.032.704-.32.672-.768-.032-.384-.32-.608-.672-.64-.448-.064-.928-.064-1.408-.064-.448 0-.672-.16-.672-.672.032-.448.256-.544.64-.544.448 0 .864 0 1.28-.032.48-.032.832-.224.832-.768 0-.48-.384-.64-.768-.704-.32-.032-.672 0-1.024-.032-.448 0-.96.128-.96-.64.032-.768.608-.512 1.024-.576.288-.032.608 0 .896 0 .448-.064.832-.224.832-.768 0-.48-.352-.608-.768-.704-2.752-.608-3.456-.064-3.456 2.752v.64zm-14.048.064v2.432c0 .544.224 1.024.864 1.056.864.032 1.76.032 2.656-.032.384-.032.736-.288.736-.736s-.352-.64-.768-.704c-.256-.032-.512-.064-.768-.032-1.056.192-1.28-.352-1.216-1.28.064-.992 0-1.952 0-2.944 0-.576-.032-1.184-.768-1.184-.704.032-.736.608-.736 1.12v2.304zm4.896-.16l.032 2.688c0 .512.224.96.8.896.48-.032.704-.416.704-.896l-.032-5.088c0-.512-.224-.864-.736-.864-.544 0-.736.384-.736.864-.032.8 0 1.6-.032 2.4z"/></svg>